<svg xmlns="http://www.w3.org/2000/svg" width="60" height="61.004" viewBox="0 0 60 61.004">
  <g id="Amazon" transform="translate(-476.922 -483.023)">
    <g id="Group_10" data-name="Group 10">
      <path id="Path_47" data-name="Path 47" d="M480.7,511.248v7.387c0,4.131,10.122,7.687,22.627,7.687s22.627-3.14,22.627-7.272v-7.8" fill="#fff" stroke="#000" stroke-linecap="round" stroke-linejoin="round" stroke-width="2.002"/>
      <path id="Path_48" data-name="Path 48" d="M526.19,510.325c0,4.132-10.136,7.478-22.639,7.478s-22.64-3.347-22.64-7.478,10.136-7.478,22.64-7.478S526.19,506.195,526.19,510.325Z" fill="#fff" stroke="#000" stroke-linecap="round" stroke-linejoin="round" stroke-width="2.002"/>
    </g>
    <g id="Group_11" data-name="Group 11">
      <path id="Path_49" data-name="Path 49" d="M488.742,500.286v8.537c0,4.131,10.121,7.688,22.627,7.688S534,513.37,534,509.239v-8.953" fill="#fff" stroke="#000" stroke-linecap="round" stroke-linejoin="round" stroke-width="2.002"/>
      <path id="Path_50" data-name="Path 50" d="M533.77,500.514c0,4.131-10.137,7.478-22.64,7.478s-22.639-3.348-22.639-7.478,10.135-7.478,22.639-7.478S533.77,496.383,533.77,500.514Z" fill="#fff" stroke="#000" stroke-linecap="round" stroke-linejoin="round" stroke-width="2.002"/>
    </g>
    <g id="Group_12" data-name="Group 12">
      <path id="Path_51" data-name="Path 51" d="M482.709,491.317v8.493c0,4.132,10.121,7.689,22.627,7.689s22.627-3.14,22.627-7.272v-8.909" fill="#fff" stroke="#000" stroke-linecap="round" stroke-linejoin="round" stroke-width="2.002"/>
      <path id="Path_52" data-name="Path 52" d="M527.707,491.5c0,4.131-10.137,7.479-22.641,7.479s-22.638-3.349-22.638-7.479,10.135-7.477,22.638-7.477S527.707,487.371,527.707,491.5Z" fill="#fff" stroke="#000" stroke-linecap="round" stroke-linejoin="round" stroke-width="2.002"/>
    </g>
    <path id="path8" d="M531.156,536.667c-6.57,4.8-16.093,7.36-24.293,7.36A44.182,44.182,0,0,1,477.187,532.8c-.614-.551-.063-1.3.675-.873a60.138,60.138,0,0,0,29.692,7.8,59.5,59.5,0,0,0,22.649-4.59c1.112-.467,2.042.721.954,1.522"/>
    <path id="path10" d="M533.889,533.57c-.838-1.062-5.552-.5-7.668-.253-.645.078-.744-.478-.163-.878,3.755-2.619,9.917-1.863,10.636-.986s-.187,7-3.717,9.925c-.541.449-1.057.21-.817-.385.792-1.961,2.569-6.354,1.729-7.424"/>
  </g>
</svg>
