<svg xmlns="http://www.w3.org/2000/svg" width="75.993" height="52.007" viewBox="0 0 75.993 52.007">
  <g id="Paid" transform="translate(-469.066 -478.648)">
    <g id="Group_3" data-name="Group 3">
      <path id="Path_31" data-name="Path 31" d="M477.115,499.671v5c0,2.748,6.794,5.114,15.1,5.114s15.1-2.09,15.1-4.838v-5.281" fill="#fff" stroke="#000" stroke-linecap="round" stroke-linejoin="round" stroke-width="2.006"/>
      <path id="Path_32" data-name="Path 32" d="M507.326,499.148c0,2.748-6.732,4.975-15.035,4.975s-15.033-2.227-15.033-4.975,6.73-4.976,15.033-4.976S507.326,496.4,507.326,499.148Z" fill="#fff" stroke="#000" stroke-linecap="round" stroke-linejoin="round" stroke-width="2.006"/>
    </g>
    <g id="Group_4" data-name="Group 4">
      <path id="Path_33" data-name="Path 33" d="M477.115,493.675v5.472c0,2.748,6.794,5.115,15.1,5.115s15.1-2.09,15.1-4.838v-5.749" fill="#fff" stroke="#000" stroke-linecap="round" stroke-linejoin="round" stroke-width="2.006"/>
      <path id="Path_34" data-name="Path 34" d="M507.326,493.619c0,2.748-6.732,4.976-15.035,4.976s-15.033-2.228-15.033-4.976,6.73-4.975,15.033-4.975S507.326,490.871,507.326,493.619Z" fill="#fff" stroke="#000" stroke-linecap="round" stroke-linejoin="round" stroke-width="2.006"/>
    </g>
    <g id="Group_5" data-name="Group 5">
      <path id="Path_35" data-name="Path 35" d="M470.069,484.681v5.472c0,2.748,6.794,5.115,15.1,5.115s15.1-2.09,15.1-4.838v-5.749" fill="#fff" stroke="#000" stroke-linecap="round" stroke-linejoin="round" stroke-width="2.006"/>
      <path id="Path_36" data-name="Path 36" d="M500.28,484.625c0,2.748-6.732,4.976-15.035,4.976s-15.033-2.228-15.033-4.976,6.73-4.975,15.033-4.975S500.28,481.877,500.28,484.625Z" fill="#fff" stroke="#000" stroke-linecap="round" stroke-linejoin="round" stroke-width="2.006"/>
    </g>
    <g id="Group_6" data-name="Group 6">
      <path id="Path_37" data-name="Path 37" d="M540.151,523.656l3.4,6H479.128l3.271-6" fill="#fff" stroke="#000" stroke-linecap="round" stroke-linejoin="round" stroke-width="2.006"/>
      <path id="Path_38" data-name="Path 38" d="M482.525,517.66l-3.4,6h64.421l-2.642-6" fill="#fff" stroke="#000" stroke-linecap="round" stroke-linejoin="round" stroke-width="2.006"/>
      <path id="Path_39" data-name="Path 39" d="M488.373,502.669h46.773l8.91,14.99H479.463Z" fill="#fff" stroke="#000" stroke-linecap="round" stroke-linejoin="round" stroke-width="2.006"/>
      <path id="Path_40" data-name="Path 40" d="M517.606,510.258c0,1.526-2.617,2.763-5.847,2.763s-5.846-1.237-5.846-2.763,2.618-2.765,5.846-2.765S517.606,508.73,517.606,510.258Z" fill="#fff" stroke="#000" stroke-linecap="round" stroke-linejoin="round" stroke-width="2.006"/>
    </g>
  </g>
</svg>
